<mxfile host="www.draw.io" modified="2019-10-22T07:25:53.308Z" agent="Mozilla/5.0 (Macintosh; Intel Mac OS X 10_14_5) AppleWebKit/537.36 (KHTML, like Gecko) Chrome/77.0.3865.120 Safari/537.36" etag="o3n0HIW7iI2KBaXugTR3" version="12.1.3" type="github" pages="1">
  <diagram id="HFB67nLXNsSxKryIQF91" name="Page-1">
    <mxGraphModel dx="885" dy="1772" grid="1" gridSize="10" guides="1" tooltips="1" connect="1" arrows="1" fold="1" page="1" pageScale="1" pageWidth="827" pageHeight="1169" math="0" shadow="0">
      <root>
        <mxCell id="0"/>
        <mxCell id="1" parent="0"/>
        <mxCell id="ypmYhKp9ZN-4LEL1DR35-29" value="" style="rounded=0;whiteSpace=wrap;html=1;fillColor=#d5e8d4;strokeColor=#82b366;" vertex="1" parent="1">
          <mxGeometry x="520" y="20" width="300" height="440" as="geometry"/>
        </mxCell>
        <mxCell id="ypmYhKp9ZN-4LEL1DR35-28" value="" style="rounded=0;whiteSpace=wrap;html=1;fillColor=#dae8fc;strokeColor=#6c8ebf;" vertex="1" parent="1">
          <mxGeometry x="60" y="20" width="300" height="440" as="geometry"/>
        </mxCell>
        <mxCell id="ypmYhKp9ZN-4LEL1DR35-11" style="edgeStyle=orthogonalEdgeStyle;rounded=0;orthogonalLoop=1;jettySize=auto;html=1;exitX=0.5;exitY=1;exitDx=0;exitDy=0;entryX=0.5;entryY=0;entryDx=0;entryDy=0;" edge="1" parent="1" source="ypmYhKp9ZN-4LEL1DR35-1" target="ypmYhKp9ZN-4LEL1DR35-2">
          <mxGeometry relative="1" as="geometry"/>
        </mxCell>
        <mxCell id="ypmYhKp9ZN-4LEL1DR35-1" value="登录" style="rounded=1;whiteSpace=wrap;html=1;" vertex="1" parent="1">
          <mxGeometry x="100" y="100" width="220" height="30" as="geometry"/>
        </mxCell>
        <mxCell id="ypmYhKp9ZN-4LEL1DR35-4" style="edgeStyle=orthogonalEdgeStyle;rounded=0;orthogonalLoop=1;jettySize=auto;html=1;entryX=0;entryY=0.5;entryDx=0;entryDy=0;" edge="1" parent="1" source="ypmYhKp9ZN-4LEL1DR35-2" target="ypmYhKp9ZN-4LEL1DR35-3">
          <mxGeometry relative="1" as="geometry"/>
        </mxCell>
        <mxCell id="ypmYhKp9ZN-4LEL1DR35-16" value="第三方登录" style="text;html=1;resizable=0;points=[];align=center;verticalAlign=middle;labelBackgroundColor=#ffffff;" vertex="1" connectable="0" parent="ypmYhKp9ZN-4LEL1DR35-4">
          <mxGeometry x="-0.1" y="4" relative="1" as="geometry">
            <mxPoint as="offset"/>
          </mxGeometry>
        </mxCell>
        <mxCell id="ypmYhKp9ZN-4LEL1DR35-12" style="edgeStyle=orthogonalEdgeStyle;rounded=0;orthogonalLoop=1;jettySize=auto;html=1;exitX=0.5;exitY=1;exitDx=0;exitDy=0;" edge="1" parent="1" source="ypmYhKp9ZN-4LEL1DR35-2" target="ypmYhKp9ZN-4LEL1DR35-5">
          <mxGeometry relative="1" as="geometry"/>
        </mxCell>
        <mxCell id="ypmYhKp9ZN-4LEL1DR35-2" value="访问体验官内模块" style="rounded=1;whiteSpace=wrap;html=1;" vertex="1" parent="1">
          <mxGeometry x="100" y="160" width="220" height="30" as="geometry"/>
        </mxCell>
        <mxCell id="ypmYhKp9ZN-4LEL1DR35-3" value="第三方登录" style="rounded=1;whiteSpace=wrap;html=1;" vertex="1" parent="1">
          <mxGeometry x="560" y="160" width="220" height="30" as="geometry"/>
        </mxCell>
        <mxCell id="ypmYhKp9ZN-4LEL1DR35-13" style="edgeStyle=orthogonalEdgeStyle;rounded=0;orthogonalLoop=1;jettySize=auto;html=1;exitX=0.5;exitY=1;exitDx=0;exitDy=0;entryX=0.5;entryY=0;entryDx=0;entryDy=0;" edge="1" parent="1" source="ypmYhKp9ZN-4LEL1DR35-5" target="ypmYhKp9ZN-4LEL1DR35-7">
          <mxGeometry relative="1" as="geometry"/>
        </mxCell>
        <mxCell id="ypmYhKp9ZN-4LEL1DR35-17" style="edgeStyle=orthogonalEdgeStyle;rounded=0;orthogonalLoop=1;jettySize=auto;html=1;exitX=1;exitY=0.5;exitDx=0;exitDy=0;" edge="1" parent="1" source="ypmYhKp9ZN-4LEL1DR35-5" target="ypmYhKp9ZN-4LEL1DR35-10">
          <mxGeometry relative="1" as="geometry"/>
        </mxCell>
        <mxCell id="ypmYhKp9ZN-4LEL1DR35-18" value="编辑项目" style="text;html=1;resizable=0;points=[];align=center;verticalAlign=middle;labelBackgroundColor=#ffffff;" vertex="1" connectable="0" parent="ypmYhKp9ZN-4LEL1DR35-17">
          <mxGeometry x="0.0833" y="2" relative="1" as="geometry">
            <mxPoint as="offset"/>
          </mxGeometry>
        </mxCell>
        <mxCell id="ypmYhKp9ZN-4LEL1DR35-5" value="创建、编辑、发布项目" style="rounded=1;whiteSpace=wrap;html=1;" vertex="1" parent="1">
          <mxGeometry x="100" y="220" width="220" height="30" as="geometry"/>
        </mxCell>
        <mxCell id="ypmYhKp9ZN-4LEL1DR35-14" style="edgeStyle=orthogonalEdgeStyle;rounded=0;orthogonalLoop=1;jettySize=auto;html=1;exitX=0.5;exitY=1;exitDx=0;exitDy=0;entryX=0.5;entryY=0;entryDx=0;entryDy=0;" edge="1" parent="1" source="ypmYhKp9ZN-4LEL1DR35-7" target="ypmYhKp9ZN-4LEL1DR35-8">
          <mxGeometry relative="1" as="geometry"/>
        </mxCell>
        <mxCell id="ypmYhKp9ZN-4LEL1DR35-22" style="edgeStyle=orthogonalEdgeStyle;rounded=0;orthogonalLoop=1;jettySize=auto;html=1;" edge="1" parent="1" source="ypmYhKp9ZN-4LEL1DR35-7" target="ypmYhKp9ZN-4LEL1DR35-19">
          <mxGeometry relative="1" as="geometry"/>
        </mxCell>
        <mxCell id="ypmYhKp9ZN-4LEL1DR35-23" value="获取账号下项目列表" style="text;html=1;resizable=0;points=[];align=center;verticalAlign=middle;labelBackgroundColor=#ffffff;" vertex="1" connectable="0" parent="ypmYhKp9ZN-4LEL1DR35-22">
          <mxGeometry x="0.1417" y="-2" relative="1" as="geometry">
            <mxPoint as="offset"/>
          </mxGeometry>
        </mxCell>
        <mxCell id="ypmYhKp9ZN-4LEL1DR35-7" value="获取项目列表和状态" style="rounded=1;whiteSpace=wrap;html=1;" vertex="1" parent="1">
          <mxGeometry x="100" y="280" width="220" height="30" as="geometry"/>
        </mxCell>
        <mxCell id="ypmYhKp9ZN-4LEL1DR35-15" style="edgeStyle=orthogonalEdgeStyle;rounded=0;orthogonalLoop=1;jettySize=auto;html=1;exitX=0.5;exitY=1;exitDx=0;exitDy=0;entryX=0.5;entryY=0;entryDx=0;entryDy=0;" edge="1" parent="1" source="ypmYhKp9ZN-4LEL1DR35-8" target="ypmYhKp9ZN-4LEL1DR35-9">
          <mxGeometry relative="1" as="geometry"/>
        </mxCell>
        <mxCell id="ypmYhKp9ZN-4LEL1DR35-24" style="edgeStyle=orthogonalEdgeStyle;rounded=0;orthogonalLoop=1;jettySize=auto;html=1;entryX=0;entryY=0.5;entryDx=0;entryDy=0;" edge="1" parent="1" source="ypmYhKp9ZN-4LEL1DR35-8" target="ypmYhKp9ZN-4LEL1DR35-20">
          <mxGeometry relative="1" as="geometry"/>
        </mxCell>
        <mxCell id="ypmYhKp9ZN-4LEL1DR35-25" value="获取问卷链接" style="text;html=1;resizable=0;points=[];align=center;verticalAlign=middle;labelBackgroundColor=#ffffff;" vertex="1" connectable="0" parent="ypmYhKp9ZN-4LEL1DR35-24">
          <mxGeometry x="0.2417" y="-3" relative="1" as="geometry">
            <mxPoint as="offset"/>
          </mxGeometry>
        </mxCell>
        <mxCell id="ypmYhKp9ZN-4LEL1DR35-8" value="获取答题链接" style="rounded=1;whiteSpace=wrap;html=1;" vertex="1" parent="1">
          <mxGeometry x="100" y="340" width="220" height="30" as="geometry"/>
        </mxCell>
        <mxCell id="ypmYhKp9ZN-4LEL1DR35-26" style="edgeStyle=orthogonalEdgeStyle;rounded=0;orthogonalLoop=1;jettySize=auto;html=1;entryX=0;entryY=0.5;entryDx=0;entryDy=0;" edge="1" parent="1" source="ypmYhKp9ZN-4LEL1DR35-9" target="ypmYhKp9ZN-4LEL1DR35-21">
          <mxGeometry relative="1" as="geometry"/>
        </mxCell>
        <mxCell id="ypmYhKp9ZN-4LEL1DR35-27" value="数据对接" style="text;html=1;resizable=0;points=[];align=center;verticalAlign=middle;labelBackgroundColor=#ffffff;" vertex="1" connectable="0" parent="ypmYhKp9ZN-4LEL1DR35-26">
          <mxGeometry x="0.225" relative="1" as="geometry">
            <mxPoint as="offset"/>
          </mxGeometry>
        </mxCell>
        <mxCell id="ypmYhKp9ZN-4LEL1DR35-9" value="获取问卷答案数据" style="rounded=1;whiteSpace=wrap;html=1;" vertex="1" parent="1">
          <mxGeometry x="100" y="400" width="220" height="30" as="geometry"/>
        </mxCell>
        <mxCell id="ypmYhKp9ZN-4LEL1DR35-10" value="创建/编辑项目" style="rounded=1;whiteSpace=wrap;html=1;" vertex="1" parent="1">
          <mxGeometry x="560" y="220" width="220" height="30" as="geometry"/>
        </mxCell>
        <mxCell id="ypmYhKp9ZN-4LEL1DR35-19" value="获取项目列表" style="rounded=1;whiteSpace=wrap;html=1;" vertex="1" parent="1">
          <mxGeometry x="560" y="280" width="220" height="30" as="geometry"/>
        </mxCell>
        <mxCell id="ypmYhKp9ZN-4LEL1DR35-20" value="获取答题链接" style="rounded=1;whiteSpace=wrap;html=1;" vertex="1" parent="1">
          <mxGeometry x="560" y="340" width="220" height="30" as="geometry"/>
        </mxCell>
        <mxCell id="ypmYhKp9ZN-4LEL1DR35-21" value="数据操作" style="rounded=1;whiteSpace=wrap;html=1;" vertex="1" parent="1">
          <mxGeometry x="560" y="400" width="220" height="30" as="geometry"/>
        </mxCell>
        <mxCell id="ypmYhKp9ZN-4LEL1DR35-30" value="第三方系统(网站、APP等)" style="text;html=1;strokeColor=none;fillColor=none;align=center;verticalAlign=middle;whiteSpace=wrap;rounded=0;" vertex="1" parent="1">
          <mxGeometry x="130" y="40" width="160" height="20" as="geometry"/>
        </mxCell>
        <mxCell id="ypmYhKp9ZN-4LEL1DR35-31" value="体验官" style="text;html=1;strokeColor=none;fillColor=none;align=center;verticalAlign=middle;whiteSpace=wrap;rounded=0;" vertex="1" parent="1">
          <mxGeometry x="650" y="40" width="40" height="20" as="geometry"/>
        </mxCell>
        <mxCell id="ypmYhKp9ZN-4LEL1DR35-37" value="" style="group" vertex="1" connectable="0" parent="1">
          <mxGeometry x="80" y="-120" width="630" height="60" as="geometry"/>
        </mxCell>
        <mxCell id="ypmYhKp9ZN-4LEL1DR35-32" value="第三方登录" style="rounded=1;whiteSpace=wrap;html=1;" vertex="1" parent="ypmYhKp9ZN-4LEL1DR35-37">
          <mxGeometry width="120" height="60" as="geometry"/>
        </mxCell>
        <mxCell id="ypmYhKp9ZN-4LEL1DR35-33" value="项目相关操作" style="rounded=1;whiteSpace=wrap;html=1;" vertex="1" parent="ypmYhKp9ZN-4LEL1DR35-37">
          <mxGeometry x="170" width="120" height="60" as="geometry"/>
        </mxCell>
        <mxCell id="ypmYhKp9ZN-4LEL1DR35-34" value="答题相关操作" style="rounded=1;whiteSpace=wrap;html=1;" vertex="1" parent="ypmYhKp9ZN-4LEL1DR35-37">
          <mxGeometry x="340" width="120" height="60" as="geometry"/>
        </mxCell>
        <mxCell id="ypmYhKp9ZN-4LEL1DR35-35" value="数据操作" style="rounded=1;whiteSpace=wrap;html=1;" vertex="1" parent="ypmYhKp9ZN-4LEL1DR35-37">
          <mxGeometry x="510" width="120" height="60" as="geometry"/>
        </mxCell>
        <mxCell id="ypmYhKp9ZN-4LEL1DR35-38" value="&lt;font style=&quot;font-size: 18px&quot;&gt;体验官（cxo.insight365.ai）将集成进开放平台中，首次集成将开放以下接口&lt;/font&gt;" style="text;html=1;strokeColor=none;fillColor=none;align=left;verticalAlign=middle;whiteSpace=wrap;rounded=0;" vertex="1" parent="1">
          <mxGeometry x="60" y="-170" width="650" height="40" as="geometry"/>
        </mxCell>
        <mxCell id="ypmYhKp9ZN-4LEL1DR35-39" value="&lt;font style=&quot;font-size: 18px&quot;&gt;交互流程：&lt;/font&gt;" style="text;html=1;strokeColor=none;fillColor=none;align=left;verticalAlign=middle;whiteSpace=wrap;rounded=0;" vertex="1" parent="1">
          <mxGeometry x="60" y="-40" width="650" height="40" as="geometry"/>
        </mxCell>
      </root>
    </mxGraphModel>
  </diagram>
</mxfile>
